<?xml version="1.0" standalone="no"?>
<!DOCTYPE svg PUBLIC "-//W3C//DTD SVG 20010904//EN"
 "http://www.w3.org/TR/2001/REC-SVG-20010904/DTD/svg10.dtd">
<svg version="1.0" xmlns="http://www.w3.org/2000/svg"
 width="256.000000pt" height="256.000000pt" viewBox="0 0 256.000000 256.000000"
 preserveAspectRatio="xMidYMid meet">
<metadata>
Created by potrace 1.14, written by Peter Selinger 2001-2017
</metadata>
<g transform="translate(0.000000,256.000000) scale(0.100000,-0.100000)"
fill="#000000" stroke="none">
<path d="M747 1904 c-3 -3 -13 -7 -24 -9 -10 -2 -19 -4 -20 -5 -2 -2 -6 -3
-10 -5 -31 -8 -63 -26 -63 -35 0 -6 -4 -9 -9 -6 -4 3 -13 -6 -20 -20 -6 -14
-15 -23 -20 -20 -4 3 -18 -4 -29 -15 -12 -11 -22 -16 -22 -12 0 9 -29 -30 -30
-39 0 -5 5 -8 11 -8 16 0 64 -40 64 -53 1 -7 -8 -21 -20 -32 -27 -26 -26 -37
9 -67 l29 -24 -28 -70 c-54 -130 -33 -270 55 -367 19 -22 77 -71 128 -110 52
-38 97 -79 102 -91 10 -25 -12 -46 -47 -46 -53 0 -16 -58 60 -92 44 -20 45
-28 12 -59 -36 -34 -32 -57 10 -65 52 -9 123 0 183 25 30 13 40 12 95 -7 34
-11 72 -23 85 -25 28 -6 87 9 105 28 8 8 16 12 18 10 3 -2 9 7 15 20 10 20 8
27 -15 46 -14 13 -28 23 -31 22 -3 0 -14 6 -25 13 -11 8 -15 14 -10 14 5 0 -1
7 -14 16 -32 22 -18 31 69 45 41 6 83 15 92 20 9 5 19 5 22 1 6 -9 59 -7 75 3
6 3 11 1 11 -5 0 -7 6 -8 19 0 14 7 22 7 26 0 5 -8 11 -8 20 0 8 6 16 7 19 2
4 -7 65 -18 134 -24 6 -1 12 -4 12 -8 0 -3 8 -6 18 -7 9 -1 31 -7 47 -14 17
-7 35 -13 40 -14 6 -2 27 -10 48 -18 20 -9 41 -17 45 -18 4 0 16 -6 27 -12 11
-6 29 -12 40 -14 11 -2 22 -8 23 -13 2 -6 14 -10 27 -10 13 0 27 -5 30 -10 4
-6 23 -18 43 -27 20 -9 41 -19 46 -21 5 -3 5 1 0 9 -5 8 -9 20 -10 26 -1 7 -9
19 -17 28 -9 8 -19 24 -22 35 -3 11 -11 20 -17 20 -6 0 -9 3 -5 6 3 3 -3 15
-13 27 -10 12 -43 53 -75 90 -62 75 -62 80 2 113 40 20 103 77 103 93 0 10
-36 7 -135 -9 -101 -16 -196 -22 -252 -15 -58 7 -130 52 -148 93 -5 12 -13 22
-17 22 -21 0 -2 26 58 82 63 59 101 112 124 172 l10 28 -64 -7 c-46 -4 -66 -3
-72 6 -4 7 -2 15 4 17 7 2 12 12 12 22 0 9 6 23 14 29 20 17 54 84 49 97 -4
12 -135 -24 -141 -38 -2 -5 -10 -8 -18 -8 -8 0 -14 -5 -14 -11 0 -5 -5 -7 -10
-4 -6 4 -29 -3 -50 -14 -22 -11 -40 -18 -40 -15 0 3 -10 -2 -22 -10 -12 -9
-30 -16 -40 -16 -10 0 -18 -4 -18 -8 0 -5 -6 -9 -12 -10 -7 0 -31 -6 -53 -13
-59 -17 -182 -23 -215 -9 -59 25 -73 51 -72 141 0 81 -4 94 -49 168 -8 11 -19
21 -26 21 -7 0 -16 6 -20 13 -9 14 -96 46 -145 53 -18 3 -38 7 -45 9 -6 2 -13
1 -16 -1z"/>
</g>
</svg>
